<svg width="250" height="250" viewBox="0 0 250 250" fill="none" xmlns="http://www.w3.org/2000/svg">
<path fill-rule="evenodd" clip-rule="evenodd" d="M125 250C194.036 250 250 194.036 250 125C250 55.9644 194.036 0 125 0C55.9644 0 0 55.9644 0 125C0 194.036 55.9644 250 125 250ZM62.9215 176C56.6755 176 51.0802 174.565 46.1354 171.696C41.1907 168.739 37.2436 164.783 34.2941 159.826C31.4314 154.87 30 149.261 30 143C30 141.783 30.347 140.826 31.041 140.13C31.8217 139.348 32.776 138.957 33.9037 138.957C35.0315 138.957 35.9857 139.348 36.7665 140.13C37.5472 140.826 37.9376 141.783 37.9376 143C37.9376 147.696 39.022 151.957 41.1907 155.783C43.4462 159.522 46.4391 162.522 50.1693 164.783C53.9863 166.957 58.237 168.043 62.9215 168.043C67.6927 168.043 71.9435 166.957 75.6737 164.783C79.4039 162.522 82.3534 159.522 84.5221 155.783C86.7776 151.957 87.9054 147.696 87.9054 143C87.9054 138.217 86.7776 133.957 84.5221 130.217C82.3534 126.391 79.4039 123.391 75.6737 121.217C71.9435 118.957 67.6927 117.826 62.9215 117.826H39.2388C38.1111 117.826 37.1568 117.478 36.3761 116.783C35.6821 116 35.3351 115.043 35.3351 113.913V77.913C35.3351 76.7826 35.6821 75.8696 36.3761 75.1739C37.1568 74.3913 38.1111 74 39.2388 74H86.6041C87.7319 74 88.6861 74.3913 89.4669 75.1739C90.2476 75.8696 90.638 76.7826 90.638 77.913C90.638 79.0435 90.2476 80 89.4669 80.7826C88.6861 81.5652 87.7319 81.9565 86.6041 81.9565H43.1426V110H62.9215C69.1675 110 74.7628 111.435 79.7075 114.304C84.6523 117.174 88.556 121.13 91.4187 126.174C94.3682 131.13 95.843 136.739 95.843 143C95.843 149.261 94.3682 154.87 91.4187 159.826C88.556 164.783 84.6523 168.739 79.7075 171.696C74.7628 174.565 69.1675 176 62.9215 176ZM133.966 176C132.839 176 131.884 175.652 131.104 174.957C130.323 174.174 129.933 173.217 129.933 172.087V83.5217L114.448 88.6087C113.84 88.8696 113.277 89 112.756 89C111.628 89 110.674 88.6522 109.893 87.9565C109.199 87.1739 108.852 86.2174 108.852 85.087C108.852 84.3044 109.026 83.5652 109.373 82.8696C109.807 82.1739 110.457 81.6522 111.325 81.3044L131.234 74.6522C131.668 74.4783 132.145 74.3478 132.665 74.2609C133.186 74.087 133.619 74 133.966 74C135.094 74 136.005 74.3913 136.699 75.1739C137.48 75.8696 137.87 76.7826 137.87 77.913V172.087C137.87 173.217 137.48 174.174 136.699 174.957C136.005 175.652 135.094 176 133.966 176ZM161.834 174.957C162.615 175.652 163.569 176 164.697 176H216.096C217.224 176 218.135 175.652 218.829 174.957C219.61 174.174 220 173.217 220 172.087C220 170.957 219.61 170 218.829 169.217C218.135 168.435 217.224 168.043 216.096 168.043H172.374L208.159 125.913C209.98 123.739 211.585 121.565 212.973 119.391C214.361 117.13 215.446 114.783 216.226 112.348C217.007 109.826 217.398 107.174 217.398 104.391C217.398 98.5652 216.096 93.3913 213.494 88.8696C210.978 84.2609 207.551 80.6522 203.214 78.0435C198.876 75.3478 193.932 74 188.38 74C182.915 74 177.97 75.3478 173.546 78.0435C169.208 80.6522 165.738 84.2609 163.136 88.8696C160.62 93.3913 159.362 98.5652 159.362 104.391C159.362 105.522 159.752 106.478 160.533 107.261C161.314 107.957 162.268 108.304 163.396 108.304C164.524 108.304 165.434 107.957 166.128 107.261C166.909 106.478 167.3 105.522 167.3 104.391C167.3 100.13 168.21 96.3043 170.032 92.913C171.941 89.5217 174.456 86.8696 177.579 84.9565C180.789 82.9565 184.389 81.9565 188.38 81.9565C192.37 81.9565 195.927 82.9565 199.05 84.9565C202.26 86.8696 204.775 89.5217 206.597 92.913C208.506 96.3043 209.46 100.13 209.46 104.391C209.46 107 208.809 109.826 207.508 112.87C206.294 115.826 204.775 118.261 202.954 120.174L161.834 169.217C161.054 170.087 160.663 171.043 160.663 172.087C160.663 173.217 161.054 174.174 161.834 174.957Z" fill="black"/>
</svg>
